<svg xmlns="http://www.w3.org/2000/svg" width="424" height="14.945" viewBox="0 0 424 14.945">
  <g id="Сгруппировать_40" data-name="Сгруппировать 40" transform="translate(-176 -3713.484)">
    <g id="Trusted_by" data-name="Trusted by" transform="translate(32)">
      <g id="Сгруппировать_39" data-name="Сгруппировать 39">
        <path id="Контур_694" data-name="Контур 694" d="M9.57-11.477v1.367H5.7V0H4.125V-10.109H.258v-1.367Zm.688,3.109h1.336v1.445a3.193,3.193,0,0,1,.8-1.027,2.086,2.086,0,0,1,1.477-.605q.039,0,.133.008l.32.031v1.484a2.1,2.1,0,0,0-.23-.031q-.105-.008-.23-.008a2.007,2.007,0,0,0-1.633.684,2.386,2.386,0,0,0-.57,1.574V0H10.258Zm6.7,0v5.555a2.342,2.342,0,0,0,.2,1.047,1.417,1.417,0,0,0,1.4.75,1.977,1.977,0,0,0,2-1.312,5.207,5.207,0,0,0,.289-1.93V-8.367H22.25V0H20.922l.016-1.234a2.837,2.837,0,0,1-.68.8A2.991,2.991,0,0,1,18.3.227a2.519,2.519,0,0,1-2.437-1.2,3.56,3.56,0,0,1-.352-1.711V-8.367Zm8.328,5.742a2.045,2.045,0,0,0,.352,1.078,2.209,2.209,0,0,0,1.844.68,2.719,2.719,0,0,0,1.375-.34,1.129,1.129,0,0,0,.594-1.051.9.9,0,0,0-.477-.82,5.666,5.666,0,0,0-1.2-.4l-1.117-.281a5.45,5.45,0,0,1-1.578-.594,1.775,1.775,0,0,1-.906-1.578,2.411,2.411,0,0,1,.855-1.922,3.413,3.413,0,0,1,2.3-.734,3.194,3.194,0,0,1,2.727,1.109,2.407,2.407,0,0,1,.508,1.516H29.227a1.627,1.627,0,0,0-.336-.867,2.143,2.143,0,0,0-1.68-.555,2.008,2.008,0,0,0-1.207.3.955.955,0,0,0-.41.8.991.991,0,0,0,.539.875,3.239,3.239,0,0,0,.922.344l.93.227a7.188,7.188,0,0,1,2.031.711,1.882,1.882,0,0,1,.82,1.7,2.584,2.584,0,0,1-.848,1.93A3.608,3.608,0,0,1,27.406.32a3.464,3.464,0,0,1-2.645-.848,3.206,3.206,0,0,1-.832-2.1ZM32.727-10.7h1.422v2.336h1.336v1.148H34.148v5.461a.591.591,0,0,0,.3.586,1.262,1.262,0,0,0,.547.086q.1,0,.219,0t.273-.02V0a3.139,3.139,0,0,1-.5.1,4.791,4.791,0,0,1-.566.031,1.527,1.527,0,0,1-1.336-.5,2.239,2.239,0,0,1-.352-1.309V-7.219H31.594V-8.367h1.133Zm7.648,2.148a3.817,3.817,0,0,1,1.727.418,3.184,3.184,0,0,1,1.273,1.082,3.733,3.733,0,0,1,.563,1.477,9.661,9.661,0,0,1,.125,1.844H37.93a3.579,3.579,0,0,0,.6,2.043,2.014,2.014,0,0,0,1.742.77,2.252,2.252,0,0,0,1.758-.727,2.449,2.449,0,0,0,.531-.977h1.383A2.912,2.912,0,0,1,43.582-1.6a3.654,3.654,0,0,1-.691.926A3.277,3.277,0,0,1,41.3.172,4.818,4.818,0,0,1,40.156.3,3.524,3.524,0,0,1,37.508-.84a4.423,4.423,0,0,1-1.086-3.184A4.809,4.809,0,0,1,37.516-7.3,3.608,3.608,0,0,1,40.375-8.555Zm2.242,3.7a3.643,3.643,0,0,0-.4-1.461,2.042,2.042,0,0,0-1.93-1.016,2.139,2.139,0,0,0-1.625.7,2.641,2.641,0,0,0-.7,1.777Zm4.063.766a4.148,4.148,0,0,0,.57,2.25,2,2,0,0,0,1.828.906,1.925,1.925,0,0,0,1.605-.84,3.966,3.966,0,0,0,.629-2.41,3.564,3.564,0,0,0-.648-2.348,2.023,2.023,0,0,0-1.6-.762,2.114,2.114,0,0,0-1.723.813A3.721,3.721,0,0,0,46.68-4.086ZM48.8-8.516a2.977,2.977,0,0,1,1.609.406,3.78,3.78,0,0,1,.852.82v-4.227h1.352V0H51.344V-1.164A3.042,3.042,0,0,1,50.18-.047,3.332,3.332,0,0,1,48.641.3,3.117,3.117,0,0,1,46.219-.879,4.6,4.6,0,0,1,45.2-4.008a5.4,5.4,0,0,1,.934-3.168A3.057,3.057,0,0,1,48.8-8.516Zm10.227-3h1.367v4.164a3.118,3.118,0,0,1,1.1-.918,3.1,3.1,0,0,1,1.391-.316,3.26,3.26,0,0,1,2.535,1.074,4.576,4.576,0,0,1,.973,3.168,5.433,5.433,0,0,1-.961,3.3A3.117,3.117,0,0,1,62.766.266,2.73,2.73,0,0,1,61.156-.2a3.886,3.886,0,0,1-.836-.875V0h-1.3ZM62.68-.977a1.879,1.879,0,0,0,1.707-.906,4.462,4.462,0,0,0,.566-2.391,3.924,3.924,0,0,0-.566-2.187,1.865,1.865,0,0,0-1.668-.867,2.327,2.327,0,0,0-1.684.711,3.193,3.193,0,0,0-.723,2.344,5.18,5.18,0,0,0,.3,1.914A2.051,2.051,0,0,0,62.68-.977ZM73.258-8.367h1.555q-.3.8-1.32,3.672-.766,2.156-1.281,3.516a23.768,23.768,0,0,1-1.719,3.906,1.965,1.965,0,0,1-1.719.7,3.372,3.372,0,0,1-.457-.023,3.61,3.61,0,0,1-.395-.086V2.039a4.851,4.851,0,0,0,.531.125,2.074,2.074,0,0,0,.289.023,1.012,1.012,0,0,0,.574-.129,1.189,1.189,0,0,0,.309-.316q.039-.062.281-.641t.352-.859L67.164-8.367h1.594L71-1.555Z" transform="translate(312 3725)" fill="#8989a2"/>
      </g>
      <line id="Линия_3" data-name="Линия 3" x2="144" transform="translate(144 3720)" fill="none" stroke="#8989a2" stroke-width="1"/>
      <line id="Линия_4" data-name="Линия 4" x2="144" transform="translate(424 3720)" fill="none" stroke="#8989a2" stroke-width="1"/>
    </g>
  </g>
</svg>
